<?xml version="1.0" standalone="no"?>
<!DOCTYPE svg PUBLIC "-//W3C//DTD SVG 20010904//EN"
 "http://www.w3.org/TR/2001/REC-SVG-20010904/DTD/svg10.dtd">
<svg version="1.0" xmlns="http://www.w3.org/2000/svg"
 width="256.000000pt" height="256.000000pt" viewBox="0 0 256.000000 256.000000"
 preserveAspectRatio="xMidYMid meet">
<metadata>
Created by potrace 1.11, written by Peter Selinger 2001-2013
</metadata>
<g transform="translate(0.000000,256.000000) scale(0.100000,-0.100000)"
fill="#000000" stroke="none">
<path d="M0 1824 l0 -737 119 116 c481 467 1171 834 1670 888 247 27 406 -37
447 -179 38 -129 -38 -336 -212 -575 l-59 -82 -3 73 c-2 60 -6 72 -20 72 -15
0 -17 11 -18 78 -1 159 -68 260 -200 302 -171 54 -461 7 -774 -125 -251 -105
-577 -304 -809 -492 -45 -37 -96 -75 -112 -83 l-29 -15 0 -532 0 -533 1280 0
1280 0 0 736 0 737 -119 -116 c-772 -750 -1987 -1157 -2117 -709 -38 129 38
336 212 575 l59 82 3 -102 c2 -78 6 -103 16 -103 9 0 16 -19 20 -52 19 -146
82 -230 202 -268 173 -54 461 -7 774 125 251 105 577 304 809 492 45 37 96 75
112 83 l29 15 0 533 0 532 -1280 0 -1280 0 0 -736z"/>
</g>
</svg>
