<?xml version="1.0" standalone="no"?>
<!DOCTYPE svg PUBLIC "-//W3C//DTD SVG 20010904//EN"
 "http://www.w3.org/TR/2001/REC-SVG-20010904/DTD/svg10.dtd">
<svg version="1.0" xmlns="http://www.w3.org/2000/svg"
 width="600.000000pt" height="600.000000pt" viewBox="0 0 600.000000 600.000000"
 preserveAspectRatio="xMidYMid meet">
<metadata>
Created by potrace 1.11, written by Peter Selinger 2001-2013
</metadata>
<g transform="translate(0.000000,600.000000) scale(0.100000,-0.100000)"
fill="#000000" stroke="none">
<path d="M4298 4915 c-2 -2 -37 -6 -78 -9 -83 -7 -97 -9 -255 -36 -128 -22
-156 -28 -210 -41 -22 -5 -50 -12 -63 -15 -53 -11 -335 -96 -432 -129 -119
-42 -402 -153 -488 -192 -249 -113 -318 -145 -472 -225 -96 -50 -188 -99 -205
-108 -16 -10 -64 -37 -105 -60 -203 -115 -434 -261 -640 -404 -106 -73 -408
-293 -420 -306 -3 -3 -27 -23 -55 -44 -51 -41 -309 -256 -357 -299 -199 -175
-509 -481 -513 -505 -3 -22 13 -42 34 -42 9 0 78 52 154 116 76 64 200 163
275 220 75 57 142 107 148 112 39 34 367 257 504 344 722 457 1448 769 2070
892 73 14 96 17 223 33 81 10 388 10 452 0 338 -54 536 -210 616 -486 30 -105
43 -279 28 -394 -3 -26 -1 -51 4 -54 5 -3 26 -5 48 -5 45 1 41 22 41 -200 1
-71 4 -128 7 -127 9 0 144 187 252 349 434 651 521 1139 252 1406 -85 84 -224
155 -354 179 -13 3 -35 7 -49 10 -62 13 -105 17 -252 19 -87 2 -159 2 -160 1z"/>
<path d="M5805 3384 c-77 -64 -151 -126 -165 -138 -14 -12 -41 -32 -60 -46
-19 -13 -37 -27 -40 -30 -17 -21 -357 -264 -505 -361 -207 -136 -320 -205
-505 -312 -134 -77 -486 -257 -610 -311 -36 -16 -87 -39 -115 -51 -147 -66
-546 -211 -630 -230 -11 -2 -60 -15 -110 -29 -49 -14 -101 -27 -115 -30 -14
-2 -47 -10 -75 -16 -27 -7 -63 -14 -80 -16 -16 -3 -52 -9 -80 -14 -144 -27
-491 -36 -590 -16 -16 4 -43 9 -60 12 -74 13 -196 59 -259 96 -69 41 -156 119
-193 173 -82 120 -125 274 -127 448 0 61 0 61 -63 60 -13 0 -23 5 -24 11 0 6
-1 113 -1 239 0 125 -3 227 -7 227 -3 0 -13 -11 -21 -24 -8 -13 -44 -61 -78
-107 -281 -370 -483 -764 -541 -1055 -17 -87 -21 -252 -7 -317 47 -212 245
-384 497 -432 13 -3 49 -10 79 -16 30 -7 129 -12 220 -13 205 -1 283 6 500 44
146 26 149 27 300 66 589 153 1258 449 1885 831 128 79 441 283 491 322 12 9
32 23 44 31 41 28 314 233 365 274 81 66 279 230 291 241 6 5 46 42 90 80 127
113 200 182 333 316 170 169 165 163 151 188 -6 12 -18 21 -28 21 -9 0 -80
-52 -157 -116z"/>
<path d="M1469 3320 c-5 -90 -3 -649 3 -661 6 -13 23 -16 90 -15 l83 1 3 140
3 140 35 -141 35 -141 92 1 c66 1 91 4 90 13 -2 7 -26 88 -54 180 -28 92 -51
173 -51 178 -1 6 20 75 46 155 27 80 49 149 49 155 3 13 -164 14 -168 1 -20
-74 -69 -233 -74 -238 -3 -4 -6 50 -6 120 l0 127 -87 0 c-72 1 -88 -2 -89 -15z"/>
<path d="M3455 3330 c-1 -3 -2 -38 -1 -77 1 -40 0 -73 -3 -73 -2 0 -13 8 -23
17 -10 9 -42 18 -73 21 -52 4 -56 3 -90 -31 -40 -40 -38 -22 -36 -288 0 -97 5
-188 10 -202 24 -62 122 -82 181 -38 35 26 39 26 33 3 -4 -16 4 -18 84 -18
l88 1 2 345 1 346 -85 -1 c-47 0 -86 -2 -88 -5z m-4 -237 c1 -16 1 -99 1 -187
0 -161 -7 -191 -36 -167 -11 9 -14 47 -13 189 0 97 2 180 4 185 2 4 13 7 24 7
14 0 19 -7 20 -27z"/>
<path d="M2424 3206 c-44 -19 -81 -62 -92 -109 -6 -21 -10 -109 -9 -196 2
-179 13 -211 82 -245 78 -39 210 -25 262 27 42 42 50 86 49 261 -2 190 -10
211 -90 251 -57 29 -150 33 -202 11z m114 -103 c14 -29 9 -350 -6 -365 -28
-28 -36 9 -37 175 0 89 1 172 3 185 5 26 28 29 40 5z"/>
<path d="M3774 3200 c-26 -13 -49 -36 -64 -63 -23 -40 -24 -52 -24 -212 0
-149 2 -175 19 -210 27 -53 78 -78 166 -80 115 -3 188 46 203 136 7 41 8 261
2 307 -13 86 -76 134 -186 139 -61 4 -82 0 -116 -17z m127 -87 c1 -5 2 -86 3
-181 1 -124 -2 -179 -10 -190 -10 -14 -15 -15 -25 -5 -10 10 -13 58 -12 182 0
93 3 176 6 185 6 16 36 23 38 9z"/>
<path d="M1905 3173 c4 -21 9 -49 11 -63 3 -14 7 -33 10 -42 3 -10 7 -30 10
-45 2 -16 16 -86 31 -158 14 -71 27 -148 27 -170 1 -37 -1 -40 -26 -39 -27 1
-28 -1 -28 -47 l0 -48 98 3 c145 4 182 32 196 151 4 28 8 61 11 75 2 14 7 50
10 80 3 30 7 69 9 85 4 30 9 67 21 180 4 33 9 63 12 68 2 4 -32 7 -76 7 -45 0
-81 -3 -82 -7 -6 -43 -20 -234 -23 -295 -2 -49 -16 -79 -17 -37 -1 34 -9 105
-23 191 -3 18 -8 51 -11 73 -10 76 -9 75 -92 75 l-75 0 7 -37z"/>
<path d="M2770 2978 c0 -131 5 -249 11 -271 12 -44 45 -69 97 -73 41 -2 102
19 102 36 0 5 4 10 10 10 5 0 7 -7 4 -15 -7 -18 20 -24 109 -23 l67 1 0 284 0
283 -85 0 c-61 0 -85 -4 -86 -12 0 -7 -1 -111 -2 -230 -2 -164 -5 -220 -15
-230 -31 -30 -37 12 -37 246 l0 226 -87 0 -88 0 0 -232z"/>
<path d="M4134 2958 c2 -266 4 -280 50 -308 44 -27 90 -22 169 18 4 2 7 -3 7
-10 0 -11 19 -14 85 -15 l85 -1 1 32 c1 38 1 518 0 529 -1 4 -40 6 -87 5 l-86
-3 0 -226 c0 -124 -3 -231 -7 -237 -4 -7 -15 -10 -24 -6 -19 7 -19 2 -19 287
l0 187 -88 0 -88 0 2 -252z"/>
</g>
</svg>
